<svg width="800" height="800" viewBox="0 0 800 800" fill="none" xmlns="http://www.w3.org/2000/svg">
<rect width="800" height="800" rx="200" fill="white"/>
<path d="M695.747 342.216C643.83 295.227 586.016 259.638 518.89 238.925C426.999 210.563 332.932 198.589 236.929 196.775C194.203 199.829 151.478 203.034 108.723 205.846C102.131 206.269 98.382 208.93 95.328 214.675C75.8855 251.262 65.3328 290.51 60.4948 331.36C49.7606 421.921 65.7863 509.064 94.5721 594.544C97.0515 601.922 101.466 604.251 109.177 602.83C139.081 597.356 169.167 592.67 199.041 586.985C249.477 577.4 299.61 566.454 346.568 544.835C372.905 532.71 397.427 518.196 410.339 489.954C411.639 487.082 417.868 484.814 421.647 485.086C429.358 485.629 437.129 487.475 444.567 489.803C489.62 503.924 534.371 518.982 579.606 532.468C610.357 541.63 641.683 548.887 672.827 556.658C685.194 559.742 696.382 556.023 703.881 545.954C712.831 534.01 722.507 521.855 728.01 508.218C750.869 451.342 752.442 393.528 695.747 342.216ZM355.67 505.526C330.966 519.405 304.116 527.69 276.69 533.889C225.045 545.53 173.249 556.536 121.574 568.027C114.831 569.539 111.807 568.147 110.295 561.012C100.71 515.142 90.8832 469.333 80.784 423.584C79.1512 416.115 82.1144 413.938 88.5851 412.456C109.902 407.528 130.645 410.279 149.301 420.5C173.068 433.532 195.413 449.195 218.786 463.013C235.417 472.84 252.138 482.939 269.917 490.257C296.738 501.323 323.377 497.755 348.171 482.788C355.579 478.313 363.411 473.717 369.004 467.367C378.227 456.905 388.114 457.812 400.421 462.589C389.898 482.274 373.994 495.215 355.609 505.526L355.67 505.526ZM704.002 500.296C690.788 523.79 675.125 532.045 649.242 525.12C615.195 515.988 581.42 505.496 548.28 493.492C489.923 472.356 431.142 453.246 369.7 443.026C357.877 441.061 346.024 436.979 335.26 431.657C316.573 422.374 308.288 404.474 311.645 383.792C316.029 356.608 330.966 335.201 349.562 315.879C351.134 314.246 352.707 312.583 354.249 310.89C354.4 310.741 354.279 310.347 354.279 308.804C254.436 307.564 162.666 332.449 78.9697 389.174C78.9697 384.064 78.728 379.891 79 375.749C82.0539 331.875 89.6132 289.119 106.818 248.178C113.803 231.517 123.963 224.321 142.286 222.991C243.551 215.582 344.391 217.911 444.476 235.63C531.862 251.081 610.297 286.337 676.244 346.781C687.492 357.092 699.043 368.099 706.753 380.98C713.889 392.954 718.122 407.619 719.937 421.588C723.505 449.195 717.76 475.834 704.002 500.296ZM675.669 379.105C628.53 330.786 574.708 293.292 511.3 270.221C455.18 249.811 396.581 242.584 337.255 240.891C292.535 239.621 248.056 241.526 204.424 252.865C174.852 260.545 150.45 275.059 135.181 302.484C134.274 304.086 133.638 305.841 132.369 308.592C135.211 308.226 136.844 308.078 138.446 307.806C184.135 300.095 229.702 291.538 275.541 284.946C313.761 279.444 352.525 277.055 390.654 284.855C468.515 300.79 534.704 339.161 592.215 393.285C592.82 393.86 593.032 394.858 594.392 397.609C590.794 395.251 589.161 394.072 587.468 393.044C569.446 382.068 551.486 371.001 533.374 360.176C527.084 356.427 520.674 354.159 512.903 357.122C505.646 359.874 497.875 361.96 490.165 362.595C484.964 363.018 476.951 362.081 474.774 358.755C471.871 354.311 472.929 346.933 473.202 340.855C473.322 338.406 475.833 336.077 477.526 333.265C447.41 317.603 415.51 311.404 382.672 308.834C380.827 308.685 378.56 309.529 377.048 310.648C367.04 318.268 359.087 327.672 358.513 340.734C357.454 364.652 363.351 387.209 382.491 402.418C400.24 416.539 419.531 429.661 439.972 439.307C517.227 475.803 600.047 486.145 684.439 487.384C687.13 487.414 691.333 484.149 692.361 481.458C706.693 444.236 706.089 410.279 675.731 379.135L675.669 379.105Z" fill="black"/>
</svg>
