<svg width="16" height="17" viewBox="0 0 16 17" fill="none" xmlns="http://www.w3.org/2000/svg">
<path d="M15.7548 14.894L12.1277 11.2669C13.0009 10.1043 13.4723 8.68932 13.4707 7.23536C13.4707 3.52151 10.4492 0.5 6.73536 0.5C3.02151 0.5 0 3.52151 0 7.23536C0 10.9492 3.02151 13.9707 6.73536 13.9707C8.18932 13.9723 9.60434 13.5009 10.7669 12.6277L14.394 16.2548C14.5776 16.4189 14.8171 16.5065 15.0632 16.4996C15.3094 16.4927 15.5436 16.3919 15.7177 16.2177C15.8919 16.0436 15.9927 15.8094 15.9996 15.5632C16.0065 15.3171 15.9189 15.0776 15.7548 14.894ZM1.92439 7.23536C1.92439 6.28384 2.20655 5.35369 2.73518 4.56253C3.26382 3.77137 4.01519 3.15473 4.89428 2.7906C5.77337 2.42647 6.7407 2.3312 7.67393 2.51683C8.60717 2.70246 9.4644 3.16066 10.1372 3.83349C10.8101 4.50632 11.2683 5.36355 11.4539 6.29679C11.6395 7.23002 11.5442 8.19735 11.1801 9.07644C10.816 9.95553 10.1994 10.7069 9.40819 11.2355C8.61703 11.7642 7.68688 12.0463 6.73536 12.0463C5.45988 12.0448 4.23708 11.5374 3.33518 10.6355C2.43328 9.73364 1.92592 8.51084 1.92439 7.23536Z" fill="#171717" fill-opacity="0.5"/>
</svg>
